<mxfile host="app.diagrams.net" modified="2021-09-28T10:16:38.692Z" agent="5.0 (Windows NT 10.0; Win64; x64) AppleWebKit/537.36 (KHTML, like Gecko) Chrome/94.0.4606.61 Safari/537.36" etag="636dyWAXqWS-t99McdFI" version="15.3.5" type="github">
  <diagram id="jUx1zYtIdx5hsR43YwK0" name="Page-1">
    <mxGraphModel dx="1420" dy="299" grid="1" gridSize="10" guides="1" tooltips="1" connect="1" arrows="1" fold="1" page="1" pageScale="1" pageWidth="827" pageHeight="1169" math="0" shadow="0">
      <root>
        <mxCell id="0" />
        <mxCell id="1" parent="0" />
        <mxCell id="1t6rzBrYcKBUPMHQ7XaG-9" style="edgeStyle=none;curved=1;rounded=0;orthogonalLoop=1;jettySize=auto;html=1;exitX=1;exitY=0.5;exitDx=0;exitDy=0;entryX=0;entryY=0.5;entryDx=0;entryDy=0;endArrow=classicThin;startSize=14;endSize=8;sourcePerimeterSpacing=8;targetPerimeterSpacing=8;endFill=1;" parent="1" source="1t6rzBrYcKBUPMHQ7XaG-1" target="1t6rzBrYcKBUPMHQ7XaG-2" edge="1">
          <mxGeometry relative="1" as="geometry" />
        </mxCell>
        <mxCell id="1t6rzBrYcKBUPMHQ7XaG-1" value="上位机" style="rounded=0;whiteSpace=wrap;html=1;hachureGap=4;pointerEvents=0;" parent="1" vertex="1">
          <mxGeometry x="-680" y="360" width="40" height="80" as="geometry" />
        </mxCell>
        <mxCell id="1t6rzBrYcKBUPMHQ7XaG-10" style="edgeStyle=none;curved=1;rounded=0;orthogonalLoop=1;jettySize=auto;html=1;exitX=1;exitY=0.5;exitDx=0;exitDy=0;entryX=0;entryY=0.5;entryDx=0;entryDy=0;endArrow=classicThin;endFill=1;startSize=14;endSize=8;sourcePerimeterSpacing=8;targetPerimeterSpacing=8;" parent="1" source="1t6rzBrYcKBUPMHQ7XaG-2" target="1t6rzBrYcKBUPMHQ7XaG-3" edge="1">
          <mxGeometry relative="1" as="geometry" />
        </mxCell>
        <mxCell id="1t6rzBrYcKBUPMHQ7XaG-2" value="下位机" style="rounded=0;whiteSpace=wrap;html=1;hachureGap=4;pointerEvents=0;" parent="1" vertex="1">
          <mxGeometry x="-570" y="360" width="40" height="80" as="geometry" />
        </mxCell>
        <mxCell id="1t6rzBrYcKBUPMHQ7XaG-11" style="edgeStyle=none;curved=1;rounded=0;orthogonalLoop=1;jettySize=auto;html=1;exitX=1;exitY=0.5;exitDx=0;exitDy=0;entryX=0;entryY=0.5;entryDx=0;entryDy=0;endArrow=classicThin;endFill=1;startSize=14;endSize=8;sourcePerimeterSpacing=8;targetPerimeterSpacing=8;" parent="1" source="1t6rzBrYcKBUPMHQ7XaG-3" target="1t6rzBrYcKBUPMHQ7XaG-4" edge="1">
          <mxGeometry relative="1" as="geometry" />
        </mxCell>
        <mxCell id="1t6rzBrYcKBUPMHQ7XaG-3" value="云台" style="rounded=0;whiteSpace=wrap;html=1;hachureGap=4;pointerEvents=0;" parent="1" vertex="1">
          <mxGeometry x="-500" y="360" width="40" height="80" as="geometry" />
        </mxCell>
        <mxCell id="1t6rzBrYcKBUPMHQ7XaG-12" style="edgeStyle=orthogonalEdgeStyle;rounded=0;orthogonalLoop=1;jettySize=auto;html=1;exitX=1;exitY=0.5;exitDx=0;exitDy=0;endArrow=classicThin;endFill=1;startSize=14;endSize=8;sourcePerimeterSpacing=8;targetPerimeterSpacing=8;" parent="1" source="1t6rzBrYcKBUPMHQ7XaG-4" edge="1">
          <mxGeometry relative="1" as="geometry">
            <mxPoint x="-320" y="400" as="targetPoint" />
          </mxGeometry>
        </mxCell>
        <mxCell id="1t6rzBrYcKBUPMHQ7XaG-4" value="下位机" style="rounded=0;whiteSpace=wrap;html=1;hachureGap=4;pointerEvents=0;" parent="1" vertex="1">
          <mxGeometry x="-430" y="360" width="40" height="80" as="geometry" />
        </mxCell>
        <mxCell id="1t6rzBrYcKBUPMHQ7XaG-8" style="edgeStyle=none;curved=1;rounded=0;orthogonalLoop=1;jettySize=auto;html=1;exitX=1;exitY=0.5;exitDx=0;exitDy=0;entryX=0;entryY=0.5;entryDx=0;entryDy=0;endArrow=classicThin;startSize=14;endSize=8;sourcePerimeterSpacing=8;targetPerimeterSpacing=8;endFill=1;" parent="1" source="1t6rzBrYcKBUPMHQ7XaG-6" target="1t6rzBrYcKBUPMHQ7XaG-1" edge="1">
          <mxGeometry relative="1" as="geometry" />
        </mxCell>
        <mxCell id="1t6rzBrYcKBUPMHQ7XaG-6" value="" style="shape=sumEllipse;perimeter=ellipsePerimeter;whiteSpace=wrap;html=1;backgroundOutline=1;hachureGap=4;pointerEvents=0;" parent="1" vertex="1">
          <mxGeometry x="-720" y="390" width="20" height="20" as="geometry" />
        </mxCell>
        <mxCell id="1t6rzBrYcKBUPMHQ7XaG-13" style="edgeStyle=none;curved=1;rounded=0;orthogonalLoop=1;jettySize=auto;html=1;endArrow=classicThin;endFill=1;startSize=14;endSize=8;sourcePerimeterSpacing=8;targetPerimeterSpacing=8;" parent="1" edge="1">
          <mxGeometry relative="1" as="geometry">
            <mxPoint x="-720" y="399.6944827586207" as="targetPoint" />
            <mxPoint x="-790" y="400" as="sourcePoint" />
          </mxGeometry>
        </mxCell>
        <mxCell id="1t6rzBrYcKBUPMHQ7XaG-15" value="主从相机&lt;br&gt;图像" style="text;html=1;align=center;verticalAlign=middle;resizable=0;points=[];autosize=1;strokeColor=none;fillColor=none;" parent="1" vertex="1">
          <mxGeometry x="-790" y="370" width="60" height="30" as="geometry" />
        </mxCell>
        <mxCell id="1t6rzBrYcKBUPMHQ7XaG-19" value="舵机控制&lt;br&gt;指令" style="text;html=1;align=center;verticalAlign=middle;resizable=0;points=[];autosize=1;strokeColor=none;fillColor=none;" parent="1" vertex="1">
          <mxGeometry x="-640" y="370" width="60" height="30" as="geometry" />
        </mxCell>
        <mxCell id="1t6rzBrYcKBUPMHQ7XaG-20" value="从相机&lt;br&gt;图像" style="text;html=1;align=center;verticalAlign=middle;resizable=0;points=[];autosize=1;strokeColor=none;fillColor=none;" parent="1" vertex="1">
          <mxGeometry x="-380" y="370" width="50" height="30" as="geometry" />
        </mxCell>
        <mxCell id="1t6rzBrYcKBUPMHQ7XaG-32" value="" style="endArrow=none;html=1;startSize=14;endSize=8;sourcePerimeterSpacing=8;targetPerimeterSpacing=8;" parent="1" edge="1">
          <mxGeometry width="50" height="50" relative="1" as="geometry">
            <mxPoint x="-360" y="520" as="sourcePoint" />
            <mxPoint x="-360" y="400" as="targetPoint" />
          </mxGeometry>
        </mxCell>
        <mxCell id="1t6rzBrYcKBUPMHQ7XaG-33" value="" style="endArrow=none;html=1;startSize=14;endSize=8;sourcePerimeterSpacing=8;targetPerimeterSpacing=8;exitX=1;exitY=0.5;exitDx=0;exitDy=0;" parent="1" source="1t6rzBrYcKBUPMHQ7XaG-34" edge="1">
          <mxGeometry width="50" height="50" relative="1" as="geometry">
            <mxPoint x="-430" y="520" as="sourcePoint" />
            <mxPoint x="-360" y="520" as="targetPoint" />
          </mxGeometry>
        </mxCell>
        <mxCell id="1t6rzBrYcKBUPMHQ7XaG-35" style="edgeStyle=orthogonalEdgeStyle;rounded=0;orthogonalLoop=1;jettySize=auto;html=1;exitX=0;exitY=0.5;exitDx=0;exitDy=0;endArrow=classicThin;endFill=1;startSize=14;endSize=8;sourcePerimeterSpacing=8;targetPerimeterSpacing=8;entryX=0.5;entryY=1;entryDx=0;entryDy=0;" parent="1" source="1t6rzBrYcKBUPMHQ7XaG-34" target="1t6rzBrYcKBUPMHQ7XaG-6" edge="1">
          <mxGeometry relative="1" as="geometry">
            <mxPoint x="-710" y="520" as="targetPoint" />
          </mxGeometry>
        </mxCell>
        <mxCell id="1t6rzBrYcKBUPMHQ7XaG-34" value="图像检测程序" style="rounded=0;whiteSpace=wrap;html=1;hachureGap=4;pointerEvents=0;" parent="1" vertex="1">
          <mxGeometry x="-570" y="510" width="80" height="20" as="geometry" />
        </mxCell>
        <mxCell id="yuulgZaatuT-V2P5PFsj-1" value="+" style="text;html=1;align=center;verticalAlign=middle;resizable=0;points=[];autosize=1;strokeColor=none;fillColor=none;" vertex="1" parent="1">
          <mxGeometry x="-740" y="380" width="20" height="20" as="geometry" />
        </mxCell>
        <mxCell id="yuulgZaatuT-V2P5PFsj-2" value="-" style="text;html=1;align=center;verticalAlign=middle;resizable=0;points=[];autosize=1;strokeColor=none;fillColor=none;" vertex="1" parent="1">
          <mxGeometry x="-730" y="410" width="20" height="20" as="geometry" />
        </mxCell>
      </root>
    </mxGraphModel>
  </diagram>
</mxfile>
